<?xml version="1.0" encoding="UTF-8"?>
<svg version="1.1" xmlns="http://www.w3.org/2000/svg" width="538" height="541">
<path d="M0 0 C5.65578072 -0.0003029 11.31151342 -0.00846328 16.96728003 -0.02069938 C69.40804941 -0.13145941 121.76300495 0.59482396 174.13167822 3.61910164 C210.85265302 5.70585028 247.03914513 5.06972077 283.77807105 3.69682992 C300.16326306 3.08535153 316.54703781 2.57060299 332.94115698 2.27739632 C336.30167305 2.2163292 339.66132231 2.13800997 343.02123511 2.04985726 C347.48843888 1.93418746 351.95524916 1.85143 356.42351782 1.79015267 C358.10426931 1.76232447 359.7848906 1.72428498 361.4651438 1.67479622 C372.52932447 1.35933725 382.09159245 2.00715696 390.69140112 9.99492562 C397.81946535 18.56348203 398.18411889 28.95294993 398.13109839 39.62187874 C398.13511415 40.95724543 398.14039497 42.29260879 398.14682257 43.62796605 C398.16032921 47.26367504 398.15490154 50.8991323 398.14558804 54.53484547 C398.13985473 57.64098006 398.14471422 60.74706284 398.14959884 63.85319614 C398.16272395 72.25419593 398.15385447 80.65504302 398.13460994 89.05602551 C398.12055179 95.25253017 398.11344988 101.44901087 398.10985816 107.64552987 C398.07453878 158.76536702 397.35691907 209.83871942 396.03032935 260.93993294 C394.22102868 330.64542354 393.97291514 400.35295461 395.57128394 470.0662452 C395.78300972 479.53036607 395.92216789 488.99425402 395.97509253 498.46062386 C395.98672044 500.19740404 396.00356697 501.93415943 396.02636206 503.67082894 C396.05593744 505.99738686 396.06620652 508.3232321 396.0710398 510.64995492 C396.0803855 511.94538216 396.0897312 513.24080941 396.09936011 514.57549202 C395.44558923 521.19604168 392.37727907 527.39094123 387.7429148 532.18511117 C380.47517334 537.31217241 374.05306082 538.3149788 365.27784216 538.48215401 C364.44194819 538.50145411 363.60605422 538.52075421 362.74483013 538.54063916 C359.98719162 538.60283314 357.22946673 538.65826065 354.47167456 538.71318734 C352.52408538 538.75480877 350.57649968 538.79659334 348.62891734 538.83853352 C329.11496083 539.24957775 309.59978309 539.52449178 290.08275855 539.73589242 C289.15279397 539.74619178 288.2228294 539.75649114 287.26468408 539.7671026 C235.51886535 540.33939869 183.77234515 540.38294099 132.02387679 540.37308657 C128.27242129 540.37260695 124.52096636 540.37276418 120.76951087 540.37314141 C1.45777785 540.38484282 1.45777785 540.38484282 -58.0070852 539.24761117 C-59.16051794 539.22579655 -60.31395067 539.20398194 -61.50233591 539.18150628 C-68.85319021 539.0409544 -76.20366581 538.88752204 -83.5539602 538.72026742 C-84.86665604 538.69101992 -84.86665604 538.69101992 -86.20587099 538.66118157 C-94.50950063 538.47086237 -102.80790518 538.21321453 -111.10181177 537.7610389 C-112.98588739 537.65951767 -112.98588739 537.65951767 -114.90802515 537.55594552 C-122.25381747 536.74256144 -127.51980547 533.86984684 -132.2570852 528.18511117 C-139.03839617 519.66003452 -138.48381449 510.35794497 -138.0148977 499.93901742 C-137.94230991 497.99157648 -137.86973296 496.0441351 -137.79766023 494.09667504 C-137.71994805 492.04803929 -137.63686856 489.9996825 -137.55237329 487.951316 C-137.29191667 481.60123422 -137.07335989 475.24965056 -136.85323083 468.89806473 C-136.80476593 467.50109448 -136.75596842 466.10413573 -136.70683801 464.70718873 C-135.94883658 443.13485894 -135.84001445 421.73206659 -137.2647146 400.17864144 C-141.95865565 328.88742861 -141.81893145 257.01448418 -138.5442251 185.66695321 C-136.66056956 144.62118129 -136.53064737 103.57179388 -138.01880395 62.50542367 C-138.29742863 54.49746192 -138.47257634 46.49092973 -138.54419458 38.47853768 C-138.56082888 36.93508656 -138.58449413 35.39169151 -138.61597192 33.84847176 C-138.80319295 24.36107265 -138.48203157 17.74943447 -132.58130395 9.97807992 C-124.6998039 2.24706196 -116.59174565 1.09779028 -105.75732934 0.87529671 C-104.90278854 0.85497447 -104.04824773 0.83465222 -103.16781175 0.81371415 C-100.27188379 0.74785277 -97.37587717 0.6902833 -94.47974145 0.63432992 C-93.45171978 0.61351546 -92.4236981 0.592701 -91.36452425 0.5712558 C-60.91314066 -0.03016832 -30.45602649 -0.00239409 0 0 Z " fill="#4DBB92" transform="translate(140.25708520412445,0.8148888349533081)"/>
<path d="M0 0 C17.40303238 12.49953646 28.44395672 31.51392284 33.16796875 52.29296875 C36.49120105 76.22024129 31.67415932 99.8500759 17.76953125 119.79296875 C8.21526431 132.21006658 -6.74840526 143.21608235 -22.72045898 145.30029297 C-25.28679076 145.4535143 -27.82373452 145.49933304 -30.39453125 145.48046875 C-31.76714111 145.47188843 -31.76714111 145.47188843 -33.16748047 145.46313477 C-50.30340901 145.0177146 -64.00028179 137.22050309 -75.69921875 124.98828125 C-89.89953314 108.37089207 -95.45575372 88.05280524 -95.58203125 66.60546875 C-95.5876709 65.7023999 -95.59331055 64.79933105 -95.59912109 63.86889648 C-95.42099738 47.41056685 -89.25565367 34.13986638 -78.26953125 21.98046875 C-77.38201172 20.97113281 -77.38201172 20.97113281 -76.4765625 19.94140625 C-57.33040136 -0.55192614 -26.20499919 -16.1863615 0 0 Z " fill="#FCFDFD" transform="translate(399.26953125,167.01953125)"/>
<path d="M0 0 C19.19870933 15.5348335 32.06914732 36.30756615 35 61 C36.75368284 84.18932403 30.75199099 105.73759963 15.7578125 123.68359375 C6.40129674 133.76102138 -6.66887177 141.72356271 -20.63671875 142.46875 C-41.50319761 142.82636329 -55.91479913 137.70108353 -71.25 123.3125 C-88.44833242 105.24866708 -95.66020885 81.38368161 -95.27734375 56.8046875 C-94.53204621 37.93123247 -81.53511203 20.60627212 -68.29296875 7.9375 C-47.53792452 -9.59998201 -23.97461802 -17.54240343 0 0 Z " fill="#FCFDFD" transform="translate(207,188)"/>
<path d="M0 0 C1.30078125 2.9140625 1.30078125 2.9140625 2.3125 6.625 C6.14423156 19.46153524 11.90989031 31.05827107 21 41 C21.54011719 41.62003906 22.08023438 42.24007812 22.63671875 42.87890625 C30.08676209 50.94227035 39.21078225 56.27497334 49.69921875 59.30859375 C52 60 52 60 53 61 C54.53255939 75.75635752 50.13873091 89.35920878 41 101 C30.8606464 112.56861572 17.74159065 121.69833854 1.96386719 123.19287109 C-17.86032556 123.92991296 -33.96929699 119.96761421 -49.3125 106.5625 C-50.89294312 105.06032164 -52.45684895 103.54046263 -54 102 C-54.63679688 101.37480469 -55.27359375 100.74960937 -55.9296875 100.10546875 C-67.01902302 88.40005904 -72.24237603 72.6647343 -72.5625 56.75 C-72.34223109 49.23883032 -70.5930559 43.55366063 -67 37 C-66.5153125 36.08863281 -66.030625 35.17726563 -65.53125 34.23828125 C-56.03364015 17.92008394 -39.18255035 4.78557375 -21.19921875 -0.8828125 C-14.4146349 -2.38111873 -6.22997863 -3.65628254 0 0 Z " fill="#2F90D9" transform="translate(114,268)"/>
<path d="M0 0 C11.13795255 9.59163721 20.82900155 22.54444092 22.89453125 37.51953125 C24.08515269 54.49439118 21.1905015 69.54313561 9.86328125 82.91796875 C1.90971521 91.34762853 -7.1200706 96.09756218 -18.10546875 99.51953125 C-18.73324219 99.71675781 -19.36101562 99.91398437 -20.0078125 100.1171875 C-25.25845027 101.12429307 -30.78467024 100.64368322 -36.10546875 100.51953125 C-37.28882813 100.49439453 -37.28882813 100.49439453 -38.49609375 100.46875 C-52.58958902 99.52739058 -66.33233871 92.83122034 -75.98046875 82.70703125 C-86.18006091 70.52922638 -91.04640832 53.26925257 -90.28125 37.44140625 C-90.22324219 36.8071875 -90.16523438 36.17296875 -90.10546875 35.51953125 C-89.21408203 35.225625 -89.21408203 35.225625 -88.3046875 34.92578125 C-78.91811779 31.53902515 -70.79348487 25.95066027 -64.10546875 18.51953125 C-63.58855469 18.00648438 -63.07164062 17.4934375 -62.5390625 16.96484375 C-56.03018576 10.17930335 -50.85463501 1.11686328 -48.05078125 -7.85546875 C-47.10546875 -10.48046875 -47.10546875 -10.48046875 -44.29296875 -11.85546875 C-28.31908877 -15.03040142 -12.54737944 -10.02212068 0 0 Z " fill="#2F90D9" transform="translate(475.10546875,273.48046875)"/>
<path d="M0 0 C0.495 0.99 0.495 0.99 1 2 C0.0409375 3.3921875 0.0409375 3.3921875 -0.9375 4.8125 C-4.38832405 10.14559171 -4.64390731 14.8000925 -4 21 C-2.38803667 26.61273977 0.49075544 29.91931594 5.31640625 33.08984375 C9.72130684 35.47114732 14.12337349 35.59874574 19 35 C21.22701261 34.15381213 23.20939608 33.15756892 25.2734375 31.97265625 C27 31 27 31 30 30 C35.37276235 40.45769815 35.64506433 52.99648478 33.3046875 64.3828125 C32.39121768 67.07716465 31.33051275 69.48726694 30 72 C29.55269531 72.86882812 29.10539062 73.73765625 28.64453125 74.6328125 C22.04727723 86.48310793 12.08945198 94.34194453 -0.875 98.4375 C-15.23946783 102.07963829 -27.96089492 99.74743514 -40.9453125 92.91796875 C-54.5730041 84.36145139 -63.72460111 71.67608469 -67.60449219 56.00878906 C-69.72335759 45.24704554 -68.58173335 34.95568846 -62.4921875 25.7109375 C-52.82721405 12.62950832 -39.95003356 1.50730076 -24 -2.8125 C-15.59868297 -3.33758231 -7.85724426 -3.5244429 0 0 Z " fill="#59524B" transform="translate(384,198)"/>
<path d="M0 0 C-1.048355 2.74185153 -2.12757769 5.21590071 -3.625 7.75 C-5.69819397 12.65027666 -5.98406371 17.13864552 -4.23828125 22.21484375 C-1.90918665 27.15841608 0.57658788 30.84599423 5.625 33.25 C13.83154129 35.07367584 19.82906485 34.37637954 27 30 C27.66 29.67 28.32 29.34 29 29 C34.58021522 39.41308018 35.43071035 54.5487054 32.01171875 65.87890625 C30.85245453 68.74655984 29.58297802 71.34645303 28 74 C27.38125 75.0725 26.7625 76.145 26.125 77.25 C25.073125 78.61125 25.073125 78.61125 24 80 C23.29810547 80.93392578 23.29810547 80.93392578 22.58203125 81.88671875 C15.04721537 91.28286682 4.78156842 96.80808029 -7 99 C-22.60563654 100.64801741 -36.40973931 96.774786 -49.0625 87.5 C-57.63135486 80.3480424 -63.65818182 70.59781015 -67 60 C-67.61875 58.1746875 -67.61875 58.1746875 -68.25 56.3125 C-70.44244289 46.2638034 -70.05600914 36.81083214 -64.8828125 27.8359375 C-50.92084783 6.8060903 -25.82616967 -11.26960131 0 0 Z " fill="#59524B" transform="translate(194,215)"/>
<path d="M0 0 C3.72240628 15.42139746 5.69155723 30.35026658 -2 45 C-9.23534744 55.2752938 -17.73836418 60.70149942 -29.984375 63.2734375 C-51.76138626 66.97498904 -74.9420204 64.91942613 -93.44140625 52.33984375 C-101.63482525 45.76334235 -106.50198425 36.32246144 -108 26 C-108.21222359 23.06108848 -108.29035598 20.13360344 -108.3125 17.1875 C-108.31813965 16.47005615 -108.3237793 15.7526123 -108.32958984 15.01342773 C-108.26959268 10.64939687 -107.59834153 7.05634883 -106 3 C-99.72885539 3.99086692 -93.67295387 5.33015483 -87.5625 7.0625 C-62.24384348 14.00344011 -29.99458303 11.63390138 -6.015625 0.734375 C-4 0 -4 0 0 0 Z " fill="#59534B" transform="translate(338,321)"/>
<path d="M0 0 C5.55864712 4.39556063 11.02375018 9.06150516 15.125 14.8984375 C15.125 15.5584375 15.125 16.2184375 15.125 16.8984375 C13.75208132 17.38353543 12.37653297 17.86119263 11 18.3359375 C10.23429687 18.60277344 9.46859375 18.86960937 8.6796875 19.14453125 C-10.80843568 24.89561347 -34.92450398 22.01070753 -52.75390625 12.8125 C-56.1189925 10.74880505 -58.9091698 8.49409641 -61.875 5.8984375 C-60.97333461 -0.67573038 -56.95427693 -4.73244017 -51.80859375 -8.69140625 C-35.53333543 -19.34598713 -14.20027497 -10.3800923 0 0 Z " fill="#EC5A39" transform="translate(302.875,364.1015625)"/>
</svg>
